<svg width="50" height="50" viewBox="0 0 50 50" fill="none" xmlns="http://www.w3.org/2000/svg">
<g clip-path="url(#clip0_86_3515)">
<g clip-path="url(#clip1_86_3515)">
<g clip-path="url(#clip2_86_3515)">
<path d="M37.1892 15.3529C36.6893 14.8523 36.0956 14.4552 35.442 14.1845C34.7884 13.9138 34.0878 13.7748 33.3804 13.7754C32.6735 13.7739 31.9733 13.9124 31.3202 14.1829C30.6672 14.4534 30.0741 14.8507 29.5754 15.3517L22.6242 22.3029C21.9487 22.9795 21.4654 23.8236 21.2238 24.7486C20.9822 25.6736 20.9909 26.6462 21.2492 27.5667C21.3231 27.8287 21.4981 28.0507 21.7357 28.1837C21.9733 28.3168 22.254 28.35 22.516 28.276C22.7781 28.2021 23.0001 28.0271 23.1331 27.7895C23.2661 27.5519 23.2993 27.2712 23.2254 27.0092C23.0655 26.4394 23.0599 25.8373 23.2092 25.2647C23.3586 24.6921 23.6575 24.1694 24.0754 23.7504L31.0267 16.8004C31.6543 16.1937 32.4952 15.8578 33.3682 15.8652C34.2411 15.8725 35.0763 16.2225 35.6936 16.8397C36.311 17.4569 36.6612 18.2919 36.6688 19.1649C36.6764 20.0378 36.3407 20.8788 35.7342 21.5067L28.7829 28.4579C28.3274 28.9141 27.7488 29.2277 27.1179 29.3604C26.8507 29.4178 26.6172 29.5789 26.4688 29.8084C26.3204 30.0379 26.2693 30.3169 26.3267 30.5842C26.384 30.8514 26.5452 31.0848 26.7747 31.2332C27.0042 31.3816 27.2832 31.4328 27.5504 31.3754C28.5698 31.1603 29.5045 30.6529 30.2404 29.9154L37.1917 22.9654C37.6923 22.4659 38.0894 21.8726 38.3603 21.2193C38.6312 20.5661 38.7705 19.8658 38.7703 19.1586C38.77 18.4515 38.6303 17.7513 38.3589 17.0982C38.0876 16.4452 37.6901 15.8521 37.1892 15.3529Z" fill="#F89522" stroke="#F89522" stroke-width="0.3125"/>
<path d="M27.5343 23.627C27.4977 23.4972 27.4359 23.3759 27.3524 23.2701C27.269 23.1642 27.1655 23.0758 27.0478 23.0099C26.9302 22.9441 26.8007 22.902 26.6668 22.8862C26.5329 22.8703 26.3972 22.881 26.2675 22.9176C26.1377 22.9542 26.0164 23.016 25.9105 23.0995C25.8047 23.183 25.7163 23.2865 25.6504 23.4041C25.5845 23.5218 25.5425 23.6512 25.5266 23.7851C25.5108 23.919 25.5215 24.0547 25.5581 24.1845C25.7162 24.7531 25.7208 25.3535 25.5712 25.9244C25.4217 26.4953 25.1234 27.0164 24.7068 27.4345L17.7556 34.3882C17.1266 34.9882 16.2879 35.3183 15.4187 35.308C14.5496 35.2978 13.7189 34.9479 13.1043 34.3333C12.4896 33.7187 12.1398 32.888 12.1295 32.0188C12.1193 31.1497 12.4494 30.311 13.0493 29.682L19.9993 22.7295C20.454 22.2735 21.0317 21.9598 21.6618 21.827C21.926 21.7709 22.1574 21.6129 22.3059 21.3873C22.4544 21.1617 22.5079 20.8867 22.455 20.6219C22.402 20.357 22.2468 20.1238 22.023 19.9726C21.7991 19.8215 21.5248 19.7647 21.2593 19.8145H21.2393C20.2197 20.0312 19.2851 20.5398 18.5493 21.2782L11.5968 28.2295C10.619 29.2451 10.0787 30.6037 10.092 32.0135C10.1053 33.4232 10.6712 34.7714 11.668 35.7684C12.6648 36.7653 14.0129 37.3314 15.4226 37.3449C16.8323 37.3585 18.1911 36.8184 19.2068 35.8407L26.1581 28.8882C26.8333 28.212 27.3166 27.3684 27.5584 26.4439C27.8002 25.5194 27.7919 24.5472 27.5343 23.627Z" fill="#F89522" stroke="#F89522" stroke-width="0.3125"/>
</g>
</g>
</g>
<defs>
<clipPath id="clip0_86_3515">
<rect width="50" height="50" fill="white"/>
</clipPath>
<clipPath id="clip1_86_3515">
<rect width="50" height="50" fill="white"/>
</clipPath>
<clipPath id="clip2_86_3515">
<rect width="50" height="50" fill="white"/>
</clipPath>
</defs>
</svg>
