<svg width="128" height="56" viewBox="0 0 128 56" fill="none" xmlns="http://www.w3.org/2000/svg">
<g clip-path="url(#clip0_1464_7472)">
<path d="M121.052 6.38672V23.8639H117.023L106.679 12.1015V23.8639H102.672V6.38672H106.679L117.023 18.0714V6.38672H121.052Z" fill="#F89522"/>
<path d="M23.0685 36.5032C23.0685 37.8071 22.6209 38.8834 21.7257 39.7379C20.8304 40.5923 19.7495 41.0195 18.4776 41.0195H10.2456C8.96278 41.0195 7.87646 40.5923 6.99212 39.7379C6.10233 38.8834 5.66016 37.8015 5.66016 36.5032V26.7715H8.92457V36.5032C8.92457 37.3022 9.36674 37.7072 10.2456 37.7072H18.4776C19.3456 37.7072 19.7823 37.3077 19.7823 36.5032V26.7715H23.0685V36.5032Z" fill="#4A4A4A"/>
<path d="M40.5003 26.7715V41.0251H37.214L28.78 31.4376V41.0251H25.5156V26.7715H28.78L37.214 36.2979V26.7715H40.5003Z" fill="#4A4A4A"/>
<path d="M46.366 41.0192H43.1016V26.7656H46.366V41.0192Z" fill="#4A4A4A"/>
<path d="M48.7891 30.0894V26.7715H64.2323V30.0894H48.7891ZM48.7891 41.0195V32.2255H64.2323V35.5655H52.0535V41.0251H48.7891V41.0195Z" fill="#4A4A4A"/>
<path d="M83.2857 31.2875V36.4973C83.2857 37.8012 82.8381 38.8776 81.9429 39.732C81.0476 40.5864 79.9667 41.0137 78.7003 41.0137H70.4683C69.2018 41.0137 68.1155 40.5864 67.2257 39.732C66.3304 38.8776 65.8828 37.7956 65.8828 36.4973V31.2875C65.8828 29.9836 66.3304 28.9073 67.2257 28.0473C68.121 27.1928 69.2018 26.7656 70.4683 26.7656H78.7003C79.9667 26.7656 81.0531 27.1928 81.9429 28.0473C82.8381 28.9017 83.2857 29.9836 83.2857 31.2875ZM79.9995 36.5029V31.293C79.9995 30.4941 79.5628 30.0891 78.6948 30.0891H70.4628C69.5839 30.0891 69.1418 30.4885 69.1418 31.293V36.5029C69.1418 37.3019 69.5839 37.7069 70.4628 37.7069H78.6948C79.5628 37.7069 79.9995 37.3074 79.9995 36.5029Z" fill="#4A4A4A"/>
<path d="M83.707 26.7715H96.5463C97.8401 26.7715 98.9537 27.2431 99.8817 28.1863C100.81 29.1295 101.274 30.2614 101.274 31.5874C101.274 32.9135 100.81 34.0453 99.8817 34.9885C98.9537 35.9317 97.8401 36.4033 96.5463 36.4033H92.9216L95.5474 41.0251H91.7807L89.1386 36.4033L87.2553 33.0633H96.5518C96.9394 33.0633 97.2778 32.919 97.5617 32.6249C97.851 32.3309 97.9929 31.9813 97.9929 31.5763C97.9929 31.1713 97.851 30.8217 97.5617 30.5277C97.2724 30.2336 96.9394 30.0894 96.5518 30.0894H85.574L83.7125 26.8325V26.7715H83.707Z" fill="#4A4A4A"/>
<path d="M103.761 41.0192H99.9727L108.068 26.7656H111.857L114.002 30.5329L116.126 26.7656H119.914L128.01 41.0192H124.243L118.031 30.0835L111.818 41.0192H108.03L112.097 33.8508L109.973 30.0835L103.761 41.0192Z" fill="#4A4A4A"/>
<path d="M54.0029 23.8694H49.9961V6.38672H54.0029V23.8639V23.8694Z" fill="#F89522"/>
<path d="M62.4547 10.4592C62.0125 10.4592 61.6304 10.6201 61.3138 10.9474C60.9972 11.2748 60.8334 11.6576 60.8334 12.107V18.1491C60.8334 18.4487 60.9098 18.7261 61.0572 18.9758C61.2046 19.2255 61.4011 19.4252 61.6468 19.575C61.8924 19.7248 62.1599 19.8025 62.4601 19.8025H71.7457V17.1782H65.9211V13.0835H75.7744V23.8694H62.4601C60.9044 23.8694 59.5778 23.3146 58.4806 22.1938C57.3834 21.0786 56.832 19.7304 56.832 18.1491V12.107C56.832 10.5258 57.3779 9.17751 58.4806 8.06231C59.5833 6.9471 60.9044 6.38672 62.4601 6.38672H75.7744V10.4592H62.4601H62.4547Z" fill="#F89522"/>
<path d="M99.8474 11.935V18.3267C99.8474 19.9246 99.296 21.2506 98.1988 22.2993C97.1015 23.3479 95.775 23.875 94.2192 23.875H84.1203C82.5645 23.875 81.238 23.3479 80.1408 22.2993C79.0435 21.2506 78.4922 19.9246 78.4922 18.3267V11.935C78.4922 10.3371 79.0435 9.01107 80.1408 7.96244C81.238 6.91381 82.5645 6.38672 84.1203 6.38672H94.2192C95.775 6.38672 97.1015 6.90826 98.1988 7.96244C99.296 9.01107 99.8474 10.3371 99.8474 11.935ZM95.8187 18.3267V11.935C95.8187 10.953 95.2837 10.4592 94.2192 10.4592H84.1203C83.0394 10.4592 82.499 10.953 82.499 11.935V18.3267C82.499 19.3087 83.0394 19.8025 84.1203 19.8025H94.2192C95.2837 19.8025 95.8187 19.3143 95.8187 18.3267Z" fill="#F89522"/>
<path d="M38.3995 6.38672H33.754L30.1402 12.7562L29.8236 13.3165L29.4688 13.9435C30.5278 14.687 31.5104 15.6746 32.4329 16.9008L36.0904 10.4647L43.6837 23.875H48.3292L38.4049 6.39782L38.3995 6.38672Z" fill="#F89522"/>
<path d="M34.4659 22.1211C31.1742 14.875 26.6378 10.9912 18.4659 14.0927L15.9002 15.2412L21.6757 7.40698L23.0131 10.7471C24.9619 10.1423 26.9108 10.8136 28.6522 11.7236L22.6474 0L2.63509 25.3225L2.62417 25.3058L0.00390625 28.6181C0.178591 28.6625 0.315063 28.546 0.451535 28.4628C3.30653 26.7595 6.04144 24.3792 8.91281 22.6204C13.531 19.7908 19.514 17.4217 24.9783 18.3815L26.9053 19.0584C22.5054 18.7588 18.0292 20.1181 14.2079 22.2653C13.0561 22.9145 11.8606 23.6635 10.8616 24.5346C18.8316 22.4373 27.342 22.4151 35.3284 24.5069C35.4758 24.357 34.6023 22.4262 34.4659 22.1266V22.1211Z" fill="#F89522"/>
<path d="M31.5791 50.4561L32.0213 50.9998H31.4044L31.0878 50.617C30.9186 50.6336 30.8094 50.6447 30.7494 50.6503C30.6948 50.6503 30.6511 50.6558 30.6238 50.6558C30.0506 50.6558 29.5812 50.4894 29.2154 50.162C28.8497 49.8347 28.6641 49.4185 28.6641 48.9247C28.6641 48.4309 28.8497 48.0148 29.2154 47.6875C29.5812 47.3601 30.0506 47.1992 30.6238 47.1992C31.197 47.1992 31.6719 47.3601 32.0431 47.6819C32.4089 48.0037 32.5945 48.4198 32.5945 48.9192C32.5945 49.2576 32.5071 49.5572 32.327 49.8236C32.1468 50.0899 31.9012 50.3007 31.5791 50.4505V50.4561ZM31.268 50.0788C31.5245 49.9678 31.7265 49.8125 31.8684 49.6072C32.0104 49.4019 32.0813 49.1744 32.0813 48.9192C32.0813 48.5586 31.9449 48.2589 31.6719 48.0204C31.399 47.7818 31.0496 47.6653 30.6238 47.6653C30.198 47.6653 29.8486 47.7818 29.5812 48.0204C29.3137 48.2589 29.1772 48.553 29.1772 48.9192C29.1772 49.2854 29.3082 49.5739 29.5757 49.8125C29.8432 50.051 30.1762 50.1676 30.5856 50.1676C30.602 50.1676 30.6238 50.1676 30.6511 50.1676C30.6784 50.1676 30.7057 50.1676 30.7221 50.1676L30.4 49.7681H31.0059L31.2625 50.0788H31.268Z" fill="#010101"/>
<path d="M35.7266 47.2988H36.2288V49.385C36.2288 49.6957 36.2997 49.9065 36.4471 50.0175C36.5945 50.1285 36.8784 50.1839 37.3096 50.1839C37.7409 50.1839 38.0302 50.1285 38.1776 50.0175C38.325 49.9065 38.396 49.6957 38.396 49.385V47.2988H38.8927V49.5181C38.8927 49.9176 38.7672 50.2061 38.5215 50.3837C38.2704 50.5612 37.8664 50.65 37.3042 50.65C36.7419 50.65 36.338 50.5612 36.0923 50.3892C35.8467 50.2117 35.7266 49.9232 35.7266 49.5181V47.2988Z" fill="#010101"/>
<path d="M41.5586 50.5515L43.1908 47.2891H43.5074L45.1505 50.5515H44.6156L44.2007 49.7248H42.5084L42.0936 50.5515H41.5641H41.5586ZM42.7159 49.292H43.9714L43.3491 48.0436L42.7159 49.292Z" fill="#010101"/>
<path d="M47.9336 50.5515V47.2891H48.4358V50.0799H50.8159V50.5515H47.9336Z" fill="#010101"/>
<path d="M53.7031 50.5512V47.2832H54.2163V50.5512H53.7031Z" fill="#010101"/>
<path d="M58.389 50.5515V47.744H57.0352V47.2891H60.245V47.744H58.8912V50.5515H58.389Z" fill="#010101"/>
<path d="M63.9708 50.5515V48.887L62.5078 47.2891H63.152L64.2164 48.4431L65.2591 47.2891H65.9251L64.4566 48.8759V50.5459H63.9653L63.9708 50.5515Z" fill="#010101"/>
<path d="M77.5757 49.1914C77.5156 49.2746 77.4556 49.3523 77.3901 49.4299C77.3246 49.5076 77.2481 49.5797 77.1663 49.6519L77.9087 50.523H77.2481L76.7841 49.9903C76.5057 50.2289 76.2383 50.4009 75.9817 50.5063C75.7251 50.6117 75.4576 50.6672 75.1738 50.6672C74.7043 50.6672 74.3276 50.5451 74.0492 50.2955C73.7654 50.0458 73.6289 49.7129 73.6289 49.2968C73.6289 48.9639 73.7326 48.6698 73.9346 48.4146C74.1366 48.1538 74.4532 47.9208 74.879 47.7044L73.7435 46.334H76.4675L76.7514 46.7945H74.808L76.8387 49.2246C76.9479 49.1137 77.0298 49.0249 77.0898 48.9583C77.1499 48.8917 77.2045 48.8252 77.2536 48.753L77.5866 49.1858L77.5757 49.1914ZM76.4784 49.6019L75.2011 48.0762C74.8626 48.226 74.606 48.3979 74.4368 48.5977C74.2676 48.7974 74.1803 49.0194 74.1803 49.269C74.1803 49.5354 74.2731 49.7517 74.4532 49.9182C74.6333 50.0846 74.8735 50.1679 75.1683 50.1679C75.3921 50.1679 75.6105 50.1179 75.8288 50.0236C76.0472 49.9293 76.2601 49.785 76.473 49.5964L76.4784 49.6019Z" fill="#010101"/>
<path d="M85.5898 50.5515V47.2891H86.0047L87.3203 49.1977L88.6359 47.2891H89.0508V50.5515H88.554V48.2101L87.3203 50.0244L86.0921 48.2101V50.5515H85.5898Z" fill="#010101"/>
<path d="M94.1433 50.6558C93.5702 50.6558 93.1007 50.4894 92.7349 50.162C92.3692 49.8347 92.1836 49.4185 92.1836 48.9247C92.1836 48.4309 92.3692 48.0148 92.7349 47.6875C93.1007 47.3601 93.5702 47.1992 94.1433 47.1992C94.7165 47.1992 95.1969 47.3601 95.5626 47.6819C95.9284 48.0037 96.114 48.4198 96.114 48.9192C96.114 49.4185 95.9284 49.8291 95.5626 50.1565C95.1969 50.4838 94.722 50.6447 94.1488 50.6447L94.1433 50.6558ZM94.1433 50.1787C94.5691 50.1787 94.9185 50.0621 95.1914 49.8236C95.4589 49.5905 95.5954 49.2909 95.5954 48.9247C95.5954 48.5586 95.4589 48.2645 95.186 48.0259C94.913 47.7873 94.5637 47.6708 94.1379 47.6708C93.7121 47.6708 93.3627 47.7873 93.0952 48.0259C92.8277 48.2589 92.6913 48.5586 92.6913 48.9247C92.6913 49.2909 92.8277 49.5905 93.0952 49.8236C93.3627 50.0566 93.7121 50.1787 94.1379 50.1787H94.1433Z" fill="#010101"/>
<path d="M99.7483 49.1242V50.5501H99.2461V47.2988H101.457C101.784 47.2988 102.041 47.3765 102.227 47.5374C102.412 47.6983 102.505 47.9202 102.505 48.2032C102.505 48.4362 102.434 48.636 102.287 48.8024C102.139 48.9689 101.948 49.0743 101.714 49.1131L102.603 50.5446H102.057L101.146 49.1187H99.7483V49.1242ZM99.7483 48.6471H101.451C101.626 48.6471 101.757 48.6082 101.85 48.5306C101.943 48.4529 101.986 48.3419 101.986 48.2032C101.986 48.0645 101.943 47.9535 101.85 47.8759C101.757 47.7982 101.626 47.7649 101.451 47.7649H99.7483V48.6471Z" fill="#010101"/>
<path d="M105.712 50.5515V47.2891H108.72V47.7662H106.215V48.5818H107.858V49.0534H106.215V50.0854H108.857V50.557H105.707L105.712 50.5515Z" fill="#010101"/>
</g>
<defs>
<clipPath id="clip0_1464_7472">
<rect width="128" height="51" fill="white"/>
</clipPath>
</defs>
</svg>
